<svg width="18" height="11" viewBox="0 0 18 11" fill="none" xmlns="http://www.w3.org/2000/svg">
<path d="M8.87858 9.90358C9.01318 9.90425 9.1466 9.87839 9.27122 9.82749C9.3961 9.77648 9.50969 9.70132 9.60546 9.60633L9.6059 9.6059L16.6059 2.6059C16.7988 2.413 16.9072 2.15138 16.9072 1.87858C16.9072 1.60578 16.7988 1.34416 16.6059 1.15126C16.413 0.958368 16.1514 0.85 15.8786 0.85C15.6058 0.85 15.3442 0.958368 15.1513 1.15126L15.1512 1.15134L8.87858 7.43255L2.60597 1.15134L2.6059 1.15126C2.413 0.958367 2.15138 0.85 1.87858 0.85C1.60578 0.85 1.34416 0.958367 1.15126 1.15126C0.958368 1.34416 0.85 1.60578 0.85 1.87858C0.85 2.01366 0.876605 2.14741 0.928296 2.2722C0.979987 2.39699 1.05575 2.51038 1.15126 2.6059L8.15126 9.6059L8.1517 9.60633C8.24747 9.70133 8.36106 9.77648 8.48594 9.82749L8.54266 9.68863L8.48594 9.82749C8.61056 9.87839 8.74398 9.90425 8.87858 9.90358ZM8.87858 9.90358C8.87829 9.90358 8.878 9.90358 8.87771 9.90358L8.87858 9.75358L8.87945 9.90358C8.87916 9.90358 8.87887 9.90358 8.87858 9.90358Z" fill="#C4C4C4" stroke="#C4C4C4" stroke-width="0.3"/>
</svg>
