<svg width="21" height="10" viewBox="0 0 21 10" fill="none" xmlns="http://www.w3.org/2000/svg">
<path d="M20.6978 0.499144C20.592 0.36224 20.4596 0.248134 20.3086 0.163693C20.1575 0.0792526 19.9909 0.0262243 19.8188 0.00780112C19.6467 -0.010622 19.4726 0.00594077 19.3071 0.0564925C19.1416 0.107044 18.988 0.190539 18.8556 0.301951C17.474 1.41938 16.2239 2.20815 14.9739 2.60253C13.7238 3.06265 12.2764 3.25984 10.5 3.25984C8.72361 3.25984 7.27619 3.06265 6.02614 2.60253C4.77609 2.14241 3.52604 1.41938 2.14441 0.301951C1.55228 -0.158165 0.762777 -0.092434 0.302232 0.499144C-0.158312 1.09072 -0.0925201 1.87949 0.499608 2.33961C1.35694 3.06264 2.28235 3.70102 3.26287 4.2458L2.14441 6.152C1.81545 6.80931 2.01283 7.59807 2.60495 7.92673C3.26287 8.25538 4.05238 8.05819 4.38134 7.46661L5.63139 5.2975C6.78723 5.63799 7.98026 5.83665 9.18416 5.88907V8.25538C9.18416 8.60404 9.32279 8.93842 9.56956 9.18496C9.81633 9.4315 10.151 9.57 10.5 9.57C10.849 9.57 11.1837 9.4315 11.4304 9.18496C11.6772 8.93842 11.8158 8.60404 11.8158 8.25538V5.88907C13.1152 5.82602 14.3995 5.58267 15.6318 5.16603L16.9476 7.46661C17.1221 7.76297 17.4073 7.97794 17.7404 8.06423C17.9054 8.10696 18.0771 8.1168 18.2459 8.09321C18.4147 8.06962 18.5771 8.01305 18.724 7.92673C18.8709 7.84041 18.9993 7.72603 19.1019 7.59013C19.2046 7.45423 19.2794 7.29945 19.3222 7.13466C19.3649 6.96986 19.3748 6.79826 19.3512 6.62965C19.3276 6.46105 19.2709 6.29874 19.1845 6.152L18.0003 4.11434C18.8936 3.61188 19.7315 3.01703 20.5004 2.33961C21.0925 1.87949 21.1583 1.09072 20.6978 0.499144Z" fill="black" fill-opacity="0.3"/>
</svg>
