<svg width="28" height="28" viewBox="0 0 28 28" fill="none" xmlns="http://www.w3.org/2000/svg">
<path d="M14 0C6.28052 0 0 6.27995 0 14C0 16.3835 0.618652 18.7419 1.78931 20.8302C1.80526 20.877 1.8269 20.9225 1.85539 20.9658C2.29004 21.6289 0.928548 22.9448 0.240967 23.4438C0.0746256 23.5646 -0.0159505 23.7651 0.00284818 23.9691C0.0210773 24.1742 0.146403 24.3542 0.332113 24.443C0.426107 24.4875 2.55151 25.4775 4.82845 24.5581C7.38281 26.7809 10.6248 28 14 28C21.7195 28 28 21.7201 28 14C28 6.27995 21.7195 0 14 0Z" fill="black" fill-opacity="0.7"/>
<path d="M16.2227 25.4595C12.3724 26.1753 8.79765 24.9832 6.23168 22.6869C4.40414 23.5671 2.55808 23.0049 2.55808 23.0049L2.58236 22.9809C3.72218 21.8372 3.9472 20.1131 3.30106 18.6334C2.38263 16.5302 2.06177 14.1084 2.58343 11.5678C3.53932 6.91272 7.37791 3.23997 12.0703 2.48816C20.039 1.21147 26.8186 8.01366 25.5022 15.9884C24.7192 20.7316 20.9491 24.5808 16.2227 25.4595Z" fill="#4CF1E7"/>
<path opacity="0.2" d="M16.223 25.4596C12.3727 26.1754 8.7979 24.9832 6.23193 22.6869C4.56628 23.3928 3.13654 23.1961 2.55833 23.005C2.49666 23.0774 2.44247 23.154 2.37426 23.2225L2.34998 23.2465C2.34998 23.2465 4.40439 23.8588 6.23193 22.9786C8.7979 25.2749 12.3727 26.467 16.223 25.7513C20.9494 24.8726 24.7195 21.0233 25.5024 16.2801C25.5989 15.6958 25.6394 15.1208 25.6516 14.5518C25.6298 15.0255 25.5823 15.5045 25.5024 15.9884C24.7195 20.7317 20.9494 24.5809 16.223 25.4596Z" fill="white"/>
<path opacity="0.2" d="M14 0.291667C21.6703 0.291667 27.9133 6.49343 27.9926 14.1458C27.9931 14.0967 28 14.0492 28 14C28 6.27995 21.7195 0 14 0C6.28052 0 0 6.27995 0 14C0 14.0429 0.00783288 14.0852 0.00826012 14.1282C0.097056 6.48403 6.3357 0.291667 14 0.291667Z" fill="white"/>
<path opacity="0.1" d="M13.9998 27.7084C10.6246 27.7084 7.38265 26.4894 4.82828 24.2665C2.55135 25.186 0.42594 24.1959 0.331946 24.1515C0.176927 24.0773 0.080013 23.933 0.0362914 23.7702C0.0188456 23.8355 -0.00365605 23.9001 0.0026814 23.9692C0.0209106 24.1743 0.146236 24.3543 0.331946 24.4431C0.42594 24.4876 2.55135 25.4776 4.82828 24.5582C7.38265 26.781 10.6246 28.0001 13.9998 28.0001C21.7193 28.0001 27.9998 21.7202 27.9998 14.0001C27.9998 13.9509 27.9929 13.9034 27.9924 13.8542C27.9131 21.5067 21.6701 27.7084 13.9998 27.7084Z" fill="black" fill-opacity="0.7"/>
<path opacity="0.1" d="M12.0703 2.47C19.4551 1.28688 25.8061 7.04509 25.6513 14.2419C25.9889 6.90865 19.5555 0.979121 12.0703 2.17833C7.37788 2.93014 3.53929 6.60289 2.5834 11.258C2.38566 12.2212 2.31003 13.167 2.34108 14.085C2.33368 13.2582 2.40638 12.4117 2.5834 11.5497C3.53929 6.89456 7.37788 3.22181 12.0703 2.47Z" fill="black" fill-opacity="0.7"/>
<path d="M6.41671 11.6667C6.09428 11.6667 5.83337 11.9277 5.83337 12.2501V16.9167C5.83337 17.2392 6.09428 17.5001 6.41671 17.5001C6.73914 17.5001 7.00005 17.2392 7.00005 16.9167V12.2501C7.00005 11.9277 6.73914 11.6667 6.41671 11.6667Z" fill="black" fill-opacity="0.7"/>
<path d="M19.8333 11.6667C18.5465 11.6667 17.5 12.7138 17.5 14.0001V15.1667C17.5 16.453 18.5465 17.5001 19.8333 17.5001C21.1202 17.5001 22.1667 16.453 22.1667 15.1667V14.0001C22.1667 12.7138 21.1202 11.6667 19.8333 11.6667ZM21 15.1667C21 15.8105 20.4765 16.3334 19.8333 16.3334C19.1902 16.3334 18.6667 15.8105 18.6667 15.1667V14.0001C18.6667 13.3564 19.1902 12.8334 19.8333 12.8334C20.4765 12.8334 21 13.3564 21 14.0001V15.1667Z" fill="black" fill-opacity="0.7"/>
<path d="M14 11.6667C13.2997 11.6667 12.6779 11.9832 12.25 12.4732C11.822 11.9832 11.2002 11.6667 10.5 11.6667C10.0539 11.6667 9.63692 11.7921 9.28203 12.0108C9.19031 11.808 8.98694 11.6667 8.74996 11.6667C8.42753 11.6667 8.16663 11.9277 8.16663 12.2501V16.9167C8.16663 17.2392 8.42753 17.5001 8.74996 17.5001C9.07239 17.5001 9.33329 17.2392 9.33329 16.9167V14.0001C9.33329 13.3564 9.85681 12.8334 10.5 12.8334C11.1431 12.8334 11.6666 13.3564 11.6666 14.0001V16.9167C11.6666 17.2392 11.9275 17.5001 12.25 17.5001C12.5724 17.5001 12.8333 17.2392 12.8333 16.9167V14.0001C12.8333 13.3564 13.3568 12.8334 14 12.8334C14.6431 12.8334 15.1666 13.3564 15.1666 14.0001V16.9167C15.1666 17.2392 15.4275 17.5001 15.75 17.5001C16.0724 17.5001 16.3333 17.2392 16.3333 16.9167V14.0001C16.3333 12.7138 15.2868 11.6667 14 11.6667Z" fill="black" fill-opacity="0.7"/>
<path d="M6.41671 10.4999C6.73888 10.4999 7.00005 10.2388 7.00005 9.91659C7.00005 9.59442 6.73888 9.33325 6.41671 9.33325C6.09454 9.33325 5.83337 9.59442 5.83337 9.91659C5.83337 10.2388 6.09454 10.4999 6.41671 10.4999Z" fill="black" fill-opacity="0.7"/>
<path d="M14 0C6.28052 0 0 6.27995 0 14C0 16.3835 0.618652 18.7419 1.78931 20.8302C1.80526 20.877 1.8269 20.9225 1.85539 20.9658C2.29004 21.6289 0.928548 22.9448 0.240967 23.4438C0.0746256 23.5646 -0.0159505 23.7651 0.00284818 23.9691C0.0210773 24.1742 0.146403 24.3542 0.332113 24.443C0.426107 24.4875 2.55151 25.4775 4.82845 24.5581C7.38281 26.7809 10.6248 28 14 28C21.7195 28 28 21.7201 28 14C28 6.27995 21.7195 0 14 0Z" fill="url(#paint0_linear_300_16)"/>
<defs>
<linearGradient id="paint0_linear_300_16" x1="1.04994" y1="8.64628" x2="26.4253" y2="20.479" gradientUnits="userSpaceOnUse">
<stop stop-color="white" stop-opacity="0.2"/>
<stop offset="1" stop-color="white" stop-opacity="0"/>
</linearGradient>
</defs>
</svg>
