<svg width="28" height="27" viewBox="0 0 28 27" fill="none" xmlns="http://www.w3.org/2000/svg">
<path d="M27.9863 13.4955C27.9863 15.3882 27.9468 17.2864 27.9976 19.1791C28.0823 22.5295 25.8982 25.1184 23.116 26.2714C21.9985 26.7337 20.8247 26.9784 19.6113 26.9784C15.8132 26.9839 12.0095 27.0328 8.21136 26.9621C5.35008 26.9077 2.99672 25.7547 1.3093 23.4813C0.423266 22.2847 0 20.925 0 19.4511C0 15.5514 0 11.6572 0 7.75749C0 4.57575 1.60841 2.35126 4.46404 0.904517C5.70562 0.279047 7.05443 0.0125427 8.45967 0.00710383C12.1449 0.00710383 15.8358 -0.0146516 19.521 0.0179816C22.3823 0.039737 24.7695 1.09488 26.5303 3.31394C27.5123 4.554 27.9863 5.97898 27.9863 7.54537C27.9863 9.52512 27.9863 11.5103 27.9863 13.4955ZM2.08247 13.4955C2.08247 15.4916 2.08247 17.4822 2.08247 19.4782C2.08247 20.3702 2.29692 21.2078 2.77662 21.9638C4.03513 23.949 5.93701 24.9171 8.29601 24.9552C12.0828 25.0096 15.8753 24.9769 19.6677 24.9661C20.5989 24.9661 21.5019 24.7811 22.3428 24.395C24.6341 23.3398 25.9152 21.6592 25.9039 19.1356C25.8813 15.274 25.8982 11.4124 25.8982 7.55081C25.8982 6.4576 25.5765 5.45685 24.905 4.57575C23.6069 2.88426 21.8123 2.05212 19.6677 2.03036C15.8866 1.98685 12.1054 2.01405 8.32423 2.01948C7.5172 2.01948 6.73839 2.17721 5.98216 2.44916C3.90533 3.19428 1.97524 5.08157 2.06554 7.86083C2.13326 9.74268 2.08247 11.6191 2.08247 13.4955Z" fill="black" fill-opacity="0.7"/>
<path d="M14.0245 19.2606C10.3844 19.2606 7.44974 16.465 7.4441 12.9842C7.43846 9.55768 10.3957 6.75123 14.0132 6.75123C17.642 6.74579 20.5879 9.54681 20.5936 13.0005C20.5936 16.4487 17.6533 19.2552 14.0245 19.2606ZM14.0245 17.2482C16.502 17.2482 18.5111 15.3392 18.5054 12.9896C18.4998 10.6618 16.4907 8.75817 14.0245 8.75817C11.547 8.75817 9.52657 10.6563 9.52657 13.0005C9.53221 15.3501 11.547 17.2537 14.0245 17.2482Z" fill="black" fill-opacity="0.7"/>
<path d="M21.3556 4.84766C22.1175 4.84766 22.7382 5.47313 22.7382 6.24001C22.7326 7.00689 22.1062 7.62692 21.3443 7.62148C20.5937 7.61604 19.9786 6.99601 19.9786 6.24544C19.9729 5.47856 20.5937 4.84766 21.3556 4.84766Z" fill="black" fill-opacity="0.7"/>
</svg>
