<svg width="24" height="14" viewBox="0 0 24 14" fill="none" xmlns="http://www.w3.org/2000/svg">
<path d="M23.8835 6.26953C21.2887 1.93359 17.6208 0 11.9899 0C6.35904 0 2.69107 1.93359 0.0963432 6.26953C0.00607222 6.42029 -0.013398 6.5885 0.00784224 6.75C-0.013398 6.9115 0.00607222 7.07971 0.0963432 7.23047C2.69107 11.5664 6.35904 13.5 11.9899 13.5C17.6208 13.5 21.2887 11.5664 23.8835 7.23047C23.9737 7.07971 23.9932 6.9115 23.972 6.75C23.9932 6.5885 23.9737 6.42029 23.8835 6.26953ZM11.9899 11.25C9.50845 11.25 7.4899 9.23145 7.4899 6.75C7.4899 4.26855 9.50845 2.25 11.9899 2.25C14.4713 2.25 16.4899 4.26855 16.4899 6.75C16.4899 9.23145 14.4713 11.25 11.9899 11.25ZM1.56271 6.75C2.8674 4.65442 4.76504 2.5863 8.58243 1.81726C7.0181 2.90125 5.9899 4.70679 5.9899 6.75C5.9899 8.79321 7.0181 10.5988 8.58243 11.6827C4.76504 10.9137 2.8674 8.84558 1.56271 6.75ZM15.3974 11.6827C16.9617 10.5988 17.9899 8.79321 17.9899 6.75C17.9899 4.70679 16.9617 2.90125 15.3974 1.81726C19.2148 2.5863 21.1124 4.65442 22.4171 6.75C21.1124 8.84558 19.2148 10.9137 15.3974 11.6827Z" fill="black" fill-opacity="0.3"/>
<path d="M14.1021 5.88078L13.9897 5.89445C13.2417 5.89445 12.6196 5.30559 12.5747 4.55363C12.562 4.35344 12.4702 4.16594 12.3188 4.0341C12.1665 3.90227 11.9683 3.84563 11.7681 3.85148C10.2563 3.9677 9.07275 5.24113 9.07275 6.74992C9.07275 8.35832 10.3813 9.66691 11.9897 9.66691C13.5981 9.66691 14.9067 8.35832 14.9067 6.74992C14.9067 6.68938 14.9009 6.62981 14.8921 6.57512C14.8618 6.16691 14.479 5.85637 14.1021 5.88078Z" fill="black" fill-opacity="0.3"/>
</svg>
