<svg width="26" height="26" viewBox="0 0 26 26" fill="none" xmlns="http://www.w3.org/2000/svg">
<circle cx="13" cy="13" r="12.5" stroke="black" stroke-opacity="0.3"/>
<g clip-path="url(#clip0_851_48)">
<path d="M6.95884 15.8737H4.10254" stroke="#C4C4C4" stroke-linecap="round" stroke-linejoin="round"/>
<path d="M21.8955 15.8737L11.1736 15.8737" stroke="#C4C4C4" stroke-linecap="round" stroke-linejoin="round"/>
<path d="M14.102 10.1577L4.10267 10.1536" stroke="#C4C4C4" stroke-linecap="round" stroke-linejoin="round"/>
<path d="M21.8957 10.1537L18.4263 10.1548" stroke="#C4C4C4" stroke-linecap="round" stroke-linejoin="round"/>
<path d="M18.1526 10.1674C18.1526 9.08663 17.2765 8.21053 16.1957 8.21053C15.115 8.21053 14.2389 9.08663 14.2389 10.1674C14.2389 11.2481 15.115 12.1242 16.1957 12.1242C17.2765 12.1242 18.1526 11.2481 18.1526 10.1674Z" stroke="#C4C4C4" stroke-linecap="round" stroke-linejoin="bevel"/>
<path d="M10.9547 15.86C10.9547 14.7793 10.0786 13.9032 8.99786 13.9032C7.91713 13.9032 7.04102 14.7793 7.04102 15.86C7.04102 16.9407 7.91713 17.8168 8.99786 17.8168C10.0786 17.8168 10.9547 16.9407 10.9547 15.86Z" stroke="#C4C4C4" stroke-linecap="round" stroke-linejoin="bevel"/>
</g>
<defs>
<clipPath id="clip0_851_48">
<rect width="19.1579" height="19.1579" fill="white" transform="translate(3.42114 3.42105)"/>
</clipPath>
</defs>
</svg>
