<svg width="67" height="60" viewBox="0 0 67 60" fill="none" xmlns="http://www.w3.org/2000/svg">
<path d="M11.0057 59.9H56.0036C62.1065 59.9 67 55.0051 67 48.9215V12.9815C67 11.2874 65.6969 9.98645 64.0001 9.98645H48.504V8.985C48.504 3.99645 44.5011 0 39.5044 0H27.505C22.5083 0 18.5054 3.99645 18.5054 8.985V9.98645H2.99986C1.30306 9.98645 0 11.2874 0 12.9815V48.9215C0 55.0051 4.9029 59.9 11.0057 59.9ZM24.5051 8.985C24.5051 7.29095 25.8082 5.99 27.505 5.99H39.5044C41.2012 5.99 42.5043 7.29095 42.5043 8.985V9.98645H24.5051V8.985ZM5.99972 15.9765H61.0003V23.96C61.0003 26.0565 59.6972 27.9565 57.7004 28.649L35.2015 36.6326C34.1047 37.035 32.9047 37.035 31.9016 36.6326L9.40269 28.649C7.4059 27.9471 6.10284 26.0565 6.10284 23.96V15.9765H5.99972ZM5.99972 33.7405C6.40283 33.9371 6.89968 34.143 7.30278 34.3395L29.8017 42.3231C31.0017 42.7255 32.2016 42.9221 33.5047 42.9221C34.8078 42.9221 36.0077 42.7255 37.2076 42.3231L59.7066 34.3395C60.2034 34.143 60.6065 33.9371 61.0097 33.7405V48.9121C61.0097 51.7105 58.8066 53.9006 56.013 53.9006H11.0151C8.21212 53.9006 6.01847 51.7012 6.01847 48.9121V33.7405H5.99972Z" fill="black"/>
</svg>
