<svg width="91" height="87" viewBox="0 0 91 87" fill="none" xmlns="http://www.w3.org/2000/svg">
<path d="M72.2611 73.3779H21.6361C20.1443 73.3779 18.7135 72.8116 17.6586 71.8036C16.6037 70.7956 16.0111 69.4285 16.0111 68.0029V20.9717C16.0111 19.5461 16.6037 18.179 17.6586 17.171C18.7135 16.163 20.1443 15.5967 21.6361 15.5967H61.0111C62.503 15.5967 63.9337 16.163 64.9886 17.171C66.0435 18.179 66.6361 19.5461 66.6361 20.9717V68.0029C66.6361 69.4285 67.2287 70.7956 68.2836 71.8036C69.3385 72.8116 70.7693 73.3779 72.2611 73.3779ZM72.2611 73.3779C73.753 73.3779 75.1837 72.8116 76.2386 71.8036C77.2935 70.7956 77.8861 69.4285 77.8861 68.0029V38.4404C77.8861 37.0149 77.2935 35.6477 76.2386 34.6397C75.1837 33.6317 73.753 33.0654 72.2611 33.0654H66.6361" stroke="black" stroke-width="4.5" stroke-linecap="round" stroke-linejoin="round"/>
<path d="M25.8549 58.5967H44.1361M25.8549 27.6904H56.7924V37.0967H25.8549V27.6904ZM25.8549 45.1592H55.3861H25.8549ZM25.8549 51.8779H55.3861H25.8549Z" stroke="black" stroke-width="4.5" stroke-linecap="round" stroke-linejoin="round"/>
</svg>
