<svg width="24" height="46" viewBox="0 0 24 46" fill="none" xmlns="http://www.w3.org/2000/svg">
<path d="M15.455 45.9635C15.2268 45.9726 15.0808 45.9909 14.9347 45.9909C11.8127 45.9909 8.69974 45.9817 5.57769 46C5.13951 46 5.02084 45.8813 5.02084 45.4431C5.02997 38.1766 5.02997 30.901 5.02997 23.6345C5.02997 23.4428 5.02997 23.2511 5.02997 23.0046C3.33201 23.0046 1.6797 23.0046 0 23.0046C0 20.412 0 17.8651 0 15.2451C0.173447 15.2451 0.337765 15.2451 0.492954 15.2451C1.86227 15.2451 3.23159 15.236 4.60091 15.2542C4.94781 15.2542 5.03909 15.1538 5.03909 14.8161C5.02084 12.7803 5.02084 10.7355 5.03909 8.69976C5.04822 7.27567 5.27644 5.88809 5.93372 4.60093C6.87398 2.7843 8.36198 1.60669 10.2425 0.876387C11.7761 0.273887 13.3919 0.0547956 15.0169 0.0274092C17.6642 -0.00910595 20.3116 0.00915161 22.9589 2.28221e-05C23.2054 2.28221e-05 23.4062 -0.00910597 23.4062 0.337788C23.3971 2.84821 23.3971 5.35862 23.3971 7.86904C23.3971 7.89643 23.388 7.92381 23.3515 8.04249C23.1963 8.04249 23.0228 8.04249 22.8494 8.04249C21.2062 8.04249 19.563 8.03336 17.9198 8.04249C16.9704 8.04249 16.2036 8.4259 15.7198 9.25662C15.5737 9.50309 15.4824 9.8226 15.4824 10.1147C15.4551 11.6666 15.4824 13.2185 15.4642 14.7704C15.4642 15.1356 15.5737 15.236 15.9297 15.236C18.2119 15.2177 20.4941 15.2268 22.7763 15.2268C22.9589 15.2268 23.1324 15.2268 23.4427 15.2268C23.1232 17.8377 22.8129 20.3937 22.4933 22.9772C20.1199 22.9772 17.8103 22.9772 15.455 22.9772C15.455 30.6545 15.455 38.2862 15.455 45.9635Z" fill="white"/>
</svg>
