<svg width="47" height="47" viewBox="0 0 47 47" fill="none" xmlns="http://www.w3.org/2000/svg">
<path d="M23.9385 0.145996C10.9808 0.145996 0.438477 10.4765 0.438477 23.176C0.438477 27.0968 1.47693 30.9764 3.44196 34.4117C3.46873 34.4886 3.50507 34.5636 3.55288 34.6348C4.28247 35.7255 1.99711 37.8902 0.842956 38.7111C0.563741 38.9098 0.411702 39.2396 0.443257 39.5751C0.473856 39.9125 0.684224 40.2086 0.995951 40.3548C1.15373 40.4279 4.72137 42.0565 8.54338 40.5441C12.8311 44.2006 18.2729 46.206 23.9385 46.206C36.8962 46.206 47.4385 35.8755 47.4385 23.176C47.4385 10.4765 36.8962 0.145996 23.9385 0.145996Z" fill="white"/>
<path d="M27.6698 42.0271C21.2067 43.2046 15.2062 41.2435 10.8991 37.466C7.8314 38.9141 4.73266 37.9893 4.73266 37.9893L4.77342 37.9497C6.68668 36.0684 7.06439 33.2323 5.9798 30.7982C4.43814 27.3384 3.89955 23.3545 4.77521 19.1753C6.37974 11.5176 12.8231 5.47592 20.6996 4.23919C34.0757 2.13905 45.4556 13.3286 43.2459 26.4471C41.9317 34.2497 35.6034 40.5816 27.6698 42.0271Z" fill="black" fill-opacity="0.75"/>
<path opacity="0.2" d="M27.6697 42.0272C21.2066 43.2046 15.2061 41.2435 10.899 37.4661C8.10303 38.6273 5.70312 38.3037 4.73255 37.9893C4.62904 38.1084 4.53808 38.2345 4.42357 38.3471L4.38281 38.3866C4.38281 38.3866 7.83129 39.3939 10.899 37.9459C15.2061 41.7233 21.2066 43.6844 27.6697 42.5069C35.6033 41.0615 41.9317 34.7295 43.2459 26.9269C43.4079 25.9657 43.4757 25.0198 43.4963 24.0837C43.4597 24.8631 43.38 25.651 43.2459 26.4471C41.9317 34.2497 35.6033 40.5817 27.6697 42.0272Z" fill="white"/>
<path opacity="0.2" d="M23.9385 0.625788C36.8136 0.625788 47.2929 10.8277 47.426 23.4159C47.4269 23.3351 47.4385 23.2569 47.4385 23.176C47.4385 10.4765 36.8962 0.145996 23.9385 0.145996C10.9808 0.145996 0.438477 10.4765 0.438477 23.176C0.438477 23.2466 0.451625 23.3162 0.452342 23.3868C0.601392 10.8122 11.0734 0.625788 23.9385 0.625788Z" fill="white"/>
<path opacity="0.1" d="M23.9385 45.7264C18.2729 45.7264 12.831 43.7211 8.54336 40.0645C4.72136 41.577 1.15371 39.9483 0.995937 39.8752C0.735727 39.7532 0.57305 39.5158 0.49966 39.2479C0.470376 39.3554 0.432606 39.4617 0.443243 39.5753C0.473842 39.9127 0.68421 40.2088 0.995937 40.355C1.15371 40.4281 4.72136 42.0568 8.54336 40.5443C12.831 44.2008 18.2729 46.2062 23.9385 46.2062C36.8962 46.2062 47.4385 35.8757 47.4385 23.1762C47.4385 23.0952 47.4269 23.0171 47.426 22.9363C47.2929 35.5245 36.8136 45.7264 23.9385 45.7264Z" fill="white"/>
<path opacity="0.1" d="M20.6998 4.2092C33.0959 2.26297 43.7565 11.7352 43.4966 23.574C44.0632 11.5108 33.2644 1.75671 20.6998 3.72941C12.8234 4.96613 6.38 11.0078 4.77547 18.6655C4.44354 20.2499 4.31661 21.8057 4.36872 23.3159C4.35629 21.9559 4.47833 20.5632 4.77547 19.1453C6.38 11.4876 12.8234 5.44593 20.6998 4.2092Z" fill="white"/>
<path d="M11.2096 19.3376C10.6684 19.3376 10.2305 19.7668 10.2305 20.2972V27.9739C10.2305 28.5043 10.6684 28.9335 11.2096 28.9335C11.7509 28.9335 12.1888 28.5043 12.1888 27.9739V20.2972C12.1888 19.7668 11.7509 19.3376 11.2096 19.3376Z" fill="white"/>
<path d="M33.7301 19.3376C31.5701 19.3376 29.8135 21.06 29.8135 23.176V25.0951C29.8135 27.2111 31.5701 28.9335 33.7301 28.9335C35.8902 28.9335 37.6468 27.2111 37.6468 25.0951V23.176C37.6468 21.06 35.8902 19.3376 33.7301 19.3376ZM35.6885 25.0951C35.6885 26.1541 34.8097 27.0143 33.7301 27.0143C32.6506 27.0143 31.7718 26.1541 31.7718 25.0951V23.176C31.7718 22.1171 32.6506 21.2568 33.7301 21.2568C34.8097 21.2568 35.6885 22.1171 35.6885 23.176V25.0951Z" fill="white"/>
<path d="M23.9382 19.3376C22.7627 19.3376 21.719 19.8582 21.0007 20.6642C20.2823 19.8582 19.2386 19.3376 18.0632 19.3376C17.3144 19.3376 16.6145 19.5438 16.0188 19.9037C15.8648 19.57 15.5234 19.3376 15.1257 19.3376C14.5844 19.3376 14.1465 19.7668 14.1465 20.2972V27.9739C14.1465 28.5043 14.5844 28.9335 15.1257 28.9335C15.6669 28.9335 16.1048 28.5043 16.1048 27.9739V23.176C16.1048 22.1171 16.9836 21.2568 18.0632 21.2568C19.1427 21.2568 20.0215 22.1171 20.0215 23.176V27.9739C20.0215 28.5043 20.4594 28.9335 21.0007 28.9335C21.5419 28.9335 21.9798 28.5043 21.9798 27.9739V23.176C21.9798 22.1171 22.8586 21.2568 23.9382 21.2568C25.0177 21.2568 25.8965 22.1171 25.8965 23.176V27.9739C25.8965 28.5043 26.3345 28.9335 26.8757 28.9335C27.4169 28.9335 27.8548 28.5043 27.8548 27.9739V23.176C27.8548 21.06 26.0983 19.3376 23.9382 19.3376Z" fill="white"/>
<path d="M11.2096 17.4184C11.7504 17.4184 12.1888 16.9888 12.1888 16.4589C12.1888 15.9289 11.7504 15.4993 11.2096 15.4993C10.6689 15.4993 10.2305 15.9289 10.2305 16.4589C10.2305 16.9888 10.6689 17.4184 11.2096 17.4184Z" fill="white"/>
<path d="M23.9385 0.145996C10.9808 0.145996 0.438477 10.4765 0.438477 23.176C0.438477 27.0968 1.47693 30.9764 3.44196 34.4117C3.46873 34.4886 3.50507 34.5636 3.55288 34.6348C4.28247 35.7255 1.99711 37.8902 0.842956 38.7111C0.563741 38.9098 0.411702 39.2396 0.443257 39.5751C0.473856 39.9125 0.684224 40.2086 0.995951 40.3548C1.15373 40.4279 4.72137 42.0565 8.54338 40.5441C12.8311 44.2006 18.2729 46.206 23.9385 46.206C36.8962 46.206 47.4385 35.8755 47.4385 23.176C47.4385 10.4765 36.8962 0.145996 23.9385 0.145996Z" fill="url(#paint0_linear_907_50)"/>
<defs>
<linearGradient id="paint0_linear_907_50" x1="2.20088" y1="14.3691" x2="44.4839" y2="34.4884" gradientUnits="userSpaceOnUse">
<stop stop-color="white" stop-opacity="0.2"/>
<stop offset="1" stop-color="white" stop-opacity="0"/>
</linearGradient>
</defs>
</svg>
