<svg width="47" height="47" viewBox="0 0 47 47" fill="none" xmlns="http://www.w3.org/2000/svg">
<path d="M46.357 23.5918C46.357 26.7864 46.2927 29.9901 46.3754 33.1846C46.5131 38.8393 42.9605 43.2088 38.4349 45.1549C36.6174 45.9352 34.708 46.3483 32.7343 46.3483C26.5564 46.3574 20.3693 46.4401 14.1914 46.3207C9.5373 46.2289 5.70937 44.2828 2.96465 40.4457C1.52344 38.4262 0.834961 36.1313 0.834961 33.6436C0.834961 27.0617 0.834961 20.4891 0.834961 13.9073C0.834961 8.53714 3.45117 4.78264 8.09609 2.34085C10.1156 1.28518 12.3096 0.835378 14.5953 0.826199C20.5896 0.826199 26.5931 0.78948 32.5875 0.844558C37.2416 0.881277 41.1246 2.66214 43.9886 6.40745C45.5859 8.50042 46.357 10.9055 46.357 13.5492C46.357 16.8907 46.357 20.2412 46.357 23.5918ZM4.22226 23.5918C4.22226 26.9608 4.22226 30.3205 4.22226 33.6895C4.22226 35.1949 4.57109 36.6086 5.35136 37.8846C7.39843 41.2352 10.492 42.8692 14.3291 42.9334C20.4887 43.0252 26.6574 42.9701 32.8261 42.9518C34.3408 42.9518 35.8095 42.6397 37.1773 41.9879C40.9043 40.2071 42.9881 37.3705 42.9697 33.1112C42.933 26.5936 42.9605 20.076 42.9605 13.5584C42.9605 11.7133 42.4373 10.0242 41.3449 8.53714C39.2336 5.68225 36.3144 4.27776 32.8261 4.24104C26.6758 4.1676 20.5254 4.2135 14.375 4.22268C13.0623 4.22268 11.7955 4.48889 10.5654 4.94788C7.1873 6.2055 4.04785 9.39085 4.19472 14.0817C4.30488 17.2578 4.22226 20.4248 4.22226 23.5918Z" fill="white"/>
<path d="M23.6469 33.3223C17.726 33.3223 12.9526 28.6039 12.9434 22.7289C12.9342 16.9457 17.7444 12.209 23.6285 12.209C29.5311 12.1998 34.3229 16.9274 34.3321 22.7565C34.3321 28.5764 29.5494 33.3131 23.6469 33.3223ZM23.6469 29.9258C27.6768 29.9258 30.9447 26.7037 30.9356 22.7381C30.9264 18.8092 27.6584 15.5963 23.6469 15.5963C19.617 15.5963 16.3307 18.8 16.3307 22.7565C16.3399 26.7221 19.617 29.935 23.6469 29.9258Z" fill="white"/>
<path d="M35.5709 8.99609C36.8102 8.99609 37.8199 10.0518 37.8199 11.3461C37.8107 12.6404 36.7918 13.6869 35.5526 13.6777C34.3317 13.6686 33.3311 12.6221 33.3311 11.3553C33.3219 10.0609 34.3317 8.99609 35.5709 8.99609Z" fill="white"/>
</svg>
